<svg xmlns="http://www.w3.org/2000/svg" viewBox="0 0 665.75 627.79"><defs><style>.cls-1,.cls-10{fill:#00b483;}.cls-2{fill:#eff7f9;}.cls-10,.cls-2,.cls-4,.cls-5,.cls-6,.cls-7{fill-rule:evenodd;}.cls-3,.cls-5{fill:#939598;}.cls-4,.cls-8{fill:#bcbec0;}.cls-6{fill:#d1d3d4;}.cls-7{fill:#fff;}.cls-9{fill:#14935b;}.cls-11{fill:#5bbf97;}.cls-12{fill:#ffcd3c;}</style></defs><g id="Layer_2" data-name="Layer 2"><g id="Layer_1-2" data-name="Layer 1"><path class="cls-1" d="M181.71,574.63H66.89a54.07,54.07,0,0,1-53.15-53.86H27.37A40.39,40.39,0,0,0,67.06,561H181.71Z"/><path class="cls-2" d="M0,313.89c0,173.36,140.53,313.9,313.89,313.9s313.9-140.54,313.9-313.9S487.25,0,313.89,0,0,140.53,0,313.89"/><path class="cls-1" d="M27.37,520.76H13.74a53.94,53.94,0,0,1,53.87-53.87H611.88a40.24,40.24,0,0,0,0-80.47H547.65V372.78h64.23a53.88,53.88,0,0,1,0,107.75H67.61A40.29,40.29,0,0,0,27.37,520.76Z"/><rect class="cls-3" x="401.18" y="372.78" width="102.42" height="13.64"/><path class="cls-4" d="M437,345.18H416.76a20.43,20.43,0,0,1-20.37-20.35V261.6a20.43,20.43,0,0,1,20.37-20.35H437a20.41,20.41,0,0,1,20.37,20.35v63.23A20.41,20.41,0,0,1,437,345.18"/><path class="cls-5" d="M437,345.18H416.76a20.43,20.43,0,0,1-20.37-20.35v-5.1a20.43,20.43,0,0,1,20.37-20.35H437a20.41,20.41,0,0,1,20.37,20.35v5.1A20.41,20.41,0,0,1,437,345.18"/><path class="cls-5" d="M408.16,214.59,135.23,319.82l-44-114.09,272.93-105.2Z"/><path class="cls-6" d="M117.25,403.62h269.1a49.86,49.86,0,0,0,49.71-49.71V218.58a47.1,47.1,0,0,0-47-47H114.53a47.12,47.12,0,0,0-47,47v135.3a49.86,49.86,0,0,0,49.71,49.71"/><path class="cls-7" d="M269,325a33.48,33.48,0,1,1-47.35-47.35,33.18,33.18,0,0,1,24.1-9.8h18.47l-24.34,24.33,14.56,14.59,49.19-49.19-49.19-49.17L239.83,223l24.26,24.29H245.26a54.07,54.07,0,1,0,54.08,54H278.76A33.38,33.38,0,0,1,269,325"/><path class="cls-4" d="M345,299.38h91V241.25H345Z"/><path class="cls-7" d="M400.1,268.89a9.91,9.91,0,1,1-9.92-9.92,9.9,9.9,0,0,1,9.92,9.92"/><path class="cls-5" d="M494.87,354.55a20.43,20.43,0,0,0-20.35,20.37v9.36a20.41,20.41,0,0,0,20.35,20.37Z"/><rect class="cls-8" x="471.2" y="374.19" width="56.35" height="10.81" rx="2.03" transform="translate(878.97 -119.77) rotate(90)"/><rect class="cls-9" x="521.65" y="363.34" width="31.55" height="7.75" rx="1.4"/><rect class="cls-9" x="521.65" y="388.1" width="31.55" height="7.75" rx="1.4"/><path class="cls-10" d="M547.53,404.65a20.42,20.42,0,0,0,20.34-20.37v-9.36a20.41,20.41,0,0,0-20.34-20.37Z"/><rect class="cls-11" x="514.85" y="374.19" width="56.35" height="10.81" rx="2.03" transform="translate(163.42 922.62) rotate(-90)"/><path class="cls-12" d="M581.21,358.87c-1.94.7-7.82.17-7.82.17s4-4.68,5.92-5.38,8.52.15,8.52.15S583.15,358.17,581.21,358.87Z"/><path class="cls-12" d="M579.31,403.63c-1.95-.7-6.11-4.88-6.11-4.88s6.07-1,8-.34,6.43,5.57,6.43,5.57S581.25,404.33,579.31,403.63Z"/><path class="cls-12" d="M456.9,358.87c1.94.7,7.83.17,7.83.17s-4-4.68-5.92-5.38-8.53.15-8.53.15S455,358.17,456.9,358.87Z"/><path class="cls-12" d="M458.81,403.63c1.94-.7,6.1-4.88,6.1-4.88s-6.07-1-8-.34-6.43,5.57-6.43,5.57S456.87,404.33,458.81,403.63Z"/><path class="cls-12" d="M570.63,338.71c-1.58,1.32-7.29,2.82-7.29,2.82s2.13-5.75,3.71-7.07,8.06-2.76,8.06-2.76S572.22,337.39,570.63,338.71Z"/><path class="cls-12" d="M553.77,323.37c-1,1.78-5.89,5.13-5.89,5.13s0-6.13,1.06-7.91,6.63-5.33,6.63-5.33S554.8,321.59,553.77,323.37Z"/><path class="cls-12" d="M532.64,314.69c-.36,2-3.76,6.83-3.76,6.83s-2.09-5.77-1.73-7.79,4.4-7.27,4.4-7.27S533,312.66,532.64,314.69Z"/><path class="cls-12" d="M509.81,313.73c.36,2-1.19,7.69-1.19,7.69s-3.94-4.71-4.3-6.73,1.63-8.33,1.63-8.33S509.45,311.7,509.81,313.73Z"/><path class="cls-12" d="M488,320.59c1,1.78,1.53,7.64,1.53,7.64s-5.32-3.08-6.36-4.86-1.32-8.38-1.32-8.38S487,318.81,488,320.59Z"/><path class="cls-12" d="M469.91,334.46c1.58,1.32,4.06,6.66,4.06,6.66s-6.06-1.09-7.64-2.41-4.13-7.42-4.13-7.42S468.33,333.14,469.91,334.46Z"/><path class="cls-12" d="M466.33,418.57c1.58-1.32,7.29-2.82,7.29-2.82s-2.13,5.75-3.71,7.08-8.06,2.75-8.06,2.75S464.74,419.9,466.33,418.57Z"/><path class="cls-12" d="M483.19,433.92c1-1.78,5.89-5.14,5.89-5.14s0,6.13-1.06,7.91-6.63,5.34-6.63,5.34S482.16,435.7,483.19,433.92Z"/><path class="cls-12" d="M504.32,442.6c.36-2,3.76-6.83,3.76-6.83s2.09,5.77,1.73,7.79-4.4,7.27-4.4,7.27S504,444.62,504.32,442.6Z"/><path class="cls-12" d="M527.15,443.56c-.36-2,1.19-7.7,1.19-7.7s3.94,4.71,4.3,6.74-1.63,8.32-1.63,8.32S527.51,445.58,527.15,443.56Z"/><path class="cls-12" d="M548.94,436.69c-1-1.78-1.53-7.64-1.53-7.64s5.32,3.09,6.36,4.87,1.32,8.38,1.32,8.38S550,438.47,548.94,436.69Z"/><path class="cls-12" d="M567.05,422.83c-1.58-1.33-4.06-6.66-4.06-6.66s6.06,1.08,7.64,2.4,4.13,7.43,4.13,7.43S568.63,424.15,567.05,422.83Z"/></g></g></svg>